# xmcd CD database file
#
# Track frame offsets:
#	150
#	19317
#	55523
#	84435
#	136477
#	154151
#	167837
#	198303
#	208864
#
# Disc length: 3603 seconds
#
# Revision: 0
# Processed by: cddbd v1.5.2PL0 Copyright (c) Steve Scherf et al.
# Submitted via: CDex 1.51
#
DISCID=760e1109
DTITLE=Christian Muthspiel Trio - Against The Wind (Music of Pirchner and Pepl)
DYEAR=2007
DGENRE=Jazz
TTITLE0=Against the wind
TTITLE1=Homesick
TTITLE2=Air Love And Vitamines
TTITLE3=Hosent Raga
TTITLE4=Christian Muthspiel - Die Alte Maer Und Das Mann
TTITLE5=Christian Muthspiel - Wirf An
TTITLE6=Drein Sein, Beinander Bleiben
TTITLE7=Little Waltz For My Baby
TTITLE8=Himmelblau
EXTD=YEAR: 2007
EXTT0=
EXTT1=
EXTT2=
EXTT3=
EXTT4=
EXTT5=
EXTT6=
EXTT7=
EXTT8=
PLAYORDER=
